<svg width="611" height="1297" viewBox="0 0 611 1297" fill="none" xmlns="http://www.w3.org/2000/svg">
<g opacity="0.05" clip-path="url(#clip0_0_181)">
<path fill-rule="evenodd" clip-rule="evenodd" d="M72.3286 627.681L86.4266 628.273L86.7539 658.614L87.0824 688.955L77.5596 689.04C72.3225 689.088 66.9347 689.601 65.5862 690.18C63.9827 690.869 67.2681 691.264 75.0869 691.321L87.0395 691.406V722.01V752.613L75.0869 753.013L63.1343 753.413L75.0869 753.671L87.0395 753.927V784.575V815.222H81.5229C78.4888 815.222 76.0064 815.774 76.0064 816.448C76.0064 817.122 78.4888 817.674 81.5229 817.674H87.0395L87.308 839.74C87.8266 882.421 88.1821 878.227 83.9748 879.062L80.297 879.791L83.9748 880.299L87.6525 880.808L88.3341 893.067L89.0169 905.326L89.2535 892.76L89.4913 880.195L102.67 880.199C109.917 880.202 123.709 880.564 133.318 881.002L150.787 881.802V911.646V941.49L126.575 941.508C110.49 941.52 102.98 941.926 104.202 942.715C105.216 943.37 116.095 943.912 128.435 943.923L150.83 943.941L150.501 974.282L150.174 1004.62L133.624 1005.29L117.074 1005.96L133.93 1006.21L150.787 1006.46V1037.02C150.787 1065.09 150.613 1067.62 148.641 1068.14C146.598 1068.67 146.598 1068.71 148.641 1068.84C150.336 1068.95 150.826 1070.21 150.971 1074.81L151.154 1080.63L151.89 1075.11C152.563 1070.06 152.912 1069.6 155.997 1069.67C157.85 1069.71 171.505 1069.85 186.338 1069.98L213.308 1070.21V1100.82V1131.43L198.904 1131.81L184.499 1132.2L198.904 1132.47L213.308 1132.73L213.429 1139.17C213.496 1142.71 213.97 1148.64 214.482 1152.34C215.298 1158.24 215.436 1157.43 215.587 1145.89L215.76 1132.69L246.101 1133.02L276.442 1133.34L276.77 1163.68L277.098 1194.02L266.349 1194.25L255.602 1194.48L266.022 1195.17L276.442 1195.86L277.12 1203.22L277.798 1210.57L278.346 1203.22C278.709 1198.35 279.411 1195.9 280.426 1195.99C281.27 1196.05 294.923 1196.19 310.768 1196.29L339.576 1196.48L339.662 1202.91C339.804 1213.48 341.842 1215.67 341.942 1205.36L342.028 1196.48L352.755 1196.32C358.655 1196.24 371.481 1195.78 381.257 1195.31C398.889 1194.46 398.804 1194.45 370.531 1194.24L342.028 1194.02V1163.36V1132.69L372.369 1133.02L402.711 1133.34L403.344 1163.99L403.979 1194.64L404.57 1163.99L405.162 1133.34L436.423 1132.73L467.684 1132.12L436.451 1131.12C419.274 1130.58 405.207 1130.03 405.191 1129.9C405.175 1129.77 405.337 1116.29 405.549 1099.94L405.936 1070.21H435.89H465.845V1093.43C465.845 1107.59 466.323 1116.94 467.071 1117.41C467.872 1117.9 468.297 1109.86 468.297 1094.19V1070.21L479.636 1070.08C485.872 1070 494.286 1069.53 498.331 1069.03C504.074 1068.32 501.587 1068.08 486.992 1067.94L468.297 1067.76V1037.11V1006.46H498.944H529.592L529.759 1009.83C529.923 1013.15 529.935 1013.15 530.496 1010.14C530.809 1008.45 531.699 1006.67 532.474 1006.17C533.499 1005.52 533.465 1005.27 532.35 1005.25C531.166 1005.24 530.818 998.279 530.818 974.589V943.941L537.867 943.923C541.744 943.912 545.743 943.369 546.755 942.715C548.036 941.888 545.889 941.521 539.685 941.508L530.775 941.49L531.104 911.149L531.431 880.808L551.045 880.147L570.66 879.487L554.57 879.227C545.72 879.085 536.713 878.616 534.556 878.184L530.63 877.398L530.937 852.747C531.106 839.187 531.496 825.749 531.804 822.884L532.363 817.674H554.27C568.057 817.674 576.177 817.219 576.177 816.448C576.177 815.676 568.003 815.222 554.11 815.222H532.044V785.369V755.516L542.158 754.729C547.721 754.296 560.27 753.839 570.047 753.713L587.823 753.482L564.53 752.639C551.72 752.174 539.17 751.723 536.641 751.635L532.044 751.475V721.441V691.406L560.546 691.284C576.742 691.215 587.725 690.738 585.984 690.18C584.298 689.641 571.473 689.145 557.481 689.077L532.044 688.955V658.92V628.886L545.835 628.741C553.421 628.661 567.074 628.204 576.177 627.725L592.726 626.854L579.128 626.643C571.65 626.528 557.996 626.072 548.787 625.631L532.044 624.828V594.983V565.139L559.933 565.016C575.821 564.948 586.504 564.472 584.758 563.913C583.072 563.374 570.521 562.877 556.868 562.81L532.044 562.687V532.822V502.957L557.481 501.775L582.919 500.593L557.674 500.38L532.429 500.166L531.58 470.696C531.115 454.487 531.061 440.696 531.462 440.048C531.872 439.383 541.075 438.805 552.65 438.718C567.085 438.61 571.487 438.276 567.595 437.583C564.561 437.044 555.044 436.561 546.448 436.51L530.818 436.42V406.565V376.71L540.197 375.918C545.356 375.481 551.837 375.014 554.602 374.881C557.365 374.746 553.283 374.332 545.529 373.961L531.431 373.286L531.104 342.945L530.775 312.604L535.394 312.442L540.012 312.282L535.722 311.523L531.431 310.765L530.754 297.28L530.076 283.795L529.835 296.974L529.592 310.152H498.944H468.297V280.28V250.408L491.895 249.228L515.494 248.047L491.895 247.84L468.297 247.631V217.045V186.459L475.346 186.017L482.395 185.574L475.423 185.342C468.53 185.113 468.446 185.067 467.977 181.126L467.501 177.142L466.522 181.117L465.542 185.091L435.966 184.318C419.698 183.892 406.143 183.329 405.843 183.066C405.542 182.803 405.267 169.227 405.23 152.895L405.162 123.203L413.131 122.495L421.099 121.787L412.876 121.576L404.652 121.364L404.234 111.863L403.816 102.363L403.57 111.863L403.324 121.364H372.676H342.028L341.875 100.83C341.767 86.3584 341.431 81.9243 340.74 85.8129C340.2 88.8471 339.717 98.0878 339.667 106.347L339.576 121.364H308.962H278.348L277.972 103.895L277.596 86.4259L277.325 103.895L277.055 121.364L252.843 121.576L228.632 121.788L252.843 122.972L277.055 124.155V154.021V183.885H246.407H215.76L215.596 160.899C215.483 144.965 215.139 139.794 214.477 144.043C213.953 147.414 213.475 157.757 213.416 167.029L213.308 183.885L209.937 184.043C208.083 184.13 198.291 184.584 188.177 185.052L169.788 185.903L191.548 186.12L213.308 186.337V216.984V247.631H182.696H152.084L151.702 231.388L151.322 215.145L151.054 231.329L150.787 247.515L143.125 247.95L135.463 248.385L143.125 248.621L150.787 248.857V279.505V310.152L136.995 310.274C129.411 310.34 120.17 310.814 116.461 311.327C111.516 312.011 115.199 312.305 130.274 312.431L150.83 312.604L150.501 342.945L150.174 373.286L121.365 373.899C96.1542 374.436 93.9966 374.627 104.085 375.431C110.425 375.938 123.526 376.351 133.2 376.351H150.787V406.385V436.42H120.139H89.4913L89.2707 414.66C89.0329 391.301 88.491 393.734 87.9737 420.483L87.6525 437.033L83.3618 437.79L79.0711 438.549L83.0553 438.71L87.0395 438.871V469.467V500.063L77.5388 500.481L68.038 500.899L77.5388 501.146L87.0395 501.392V532.04V562.687L78.1517 562.773C73.264 562.821 68.1606 563.333 66.8121 563.913C65.1951 564.608 68.2231 564.996 75.6999 565.053L87.0395 565.139V595.747L87.0395 626.357L72.6351 626.723L58.2307 627.09L72.3286 627.681ZM108.799 878.552C119.418 878.112 133.21 877.749 139.447 877.746L150.787 877.743L150.787 847.708V817.674H120.139H89.4913V848.514V879.352L108.799 878.552ZM119.833 814.936L150.174 814.609L150.502 784.881L150.831 755.153L132.114 755.147C121.82 755.143 108.017 754.784 101.444 754.349L89.4913 753.557V784.412V815.265L119.833 814.936ZM101.444 752.28C108.017 751.844 121.82 751.485 132.114 751.481L150.831 751.475L150.502 721.747L150.174 692.019L119.833 691.692L89.4913 691.363V722.217V753.071L101.444 752.28ZM120.139 688.955H150.787V658.92L150.787 628.886H120.139H89.4913V658.92V688.955H120.139ZM95.1796 625.988C98.3068 625.558 112.108 625.208 125.848 625.208H150.831L150.502 595.48L150.174 565.752L119.833 565.425L89.4913 565.096V595.931L89.4913 626.767L95.1796 625.988ZM120.139 562.687H150.787V532.696V502.703L121.058 502.355C104.707 502.162 90.9159 502.176 90.4108 502.384C89.9057 502.592 89.4913 516.245 89.4913 532.725V562.687H120.139ZM102.67 500.161C109.917 500.159 123.709 499.797 133.318 499.358L150.787 498.559V468.715V438.871H120.139H89.4913V469.519V500.166L102.67 500.161ZM182.66 1067.76H213.308V1037.91V1008.06L201.355 1007.27C194.781 1006.83 181.347 1006.47 171.501 1006.47L153.598 1006.46L152.806 1015.84C152.369 1021 152.013 1034.79 152.013 1046.49V1067.76H182.66ZM152.91 293.296L153.307 310.152H183.308H213.308V280.118V250.083L187.564 249.838C173.405 249.703 159.752 249.565 157.223 249.532L152.626 249.47L152.569 262.955C152.539 270.372 152.692 284.025 152.91 293.296ZM155.997 1004.78C157.514 1004.38 171.029 1004.04 186.032 1004.03L213.308 1004.01L213.308 973.976V943.941H183.273H153.239V974.732V1005.52L155.997 1004.78ZM183.273 941.49H213.308V911.455V881.42H183.273H153.239V911.455V941.49H183.273ZM183.273 877.743H213.308V847.708V817.674H183.273H153.239V847.708L153.239 877.743H183.273ZM183.273 815.222H213.308V785.188V755.153H183.273H153.239V785.188V815.222H183.273ZM183.273 751.475H213.308V721.441V691.406H183.273H153.239V721.441V751.475H183.273ZM183.273 688.955H213.308V658.92V628.886H183.273H153.239L153.239 658.92V688.955H183.273ZM183.273 625.208H213.308V595.173V565.139H183.273H153.239V595.173V625.208H183.273ZM183.273 562.687H213.308V532.653L213.308 502.618H183.273H153.239V532.653V562.687H183.273ZM183.273 498.94H213.308V468.906V438.871H183.273H153.239V468.906V498.94H183.273ZM183.273 436.42H213.308V406.385V376.351H183.273H153.239V406.385V436.42H183.273ZM158.927 373.453C162.054 373.024 175.57 372.673 188.961 372.673H213.308V342.639V312.604H183.273H153.239V343.418V374.232L158.927 373.453ZM220.357 1131.06C222.886 1130.65 236.677 1130.3 251.005 1130.29L277.055 1130.28L277.051 1119.55C277.049 1113.65 276.686 1100.14 276.246 1089.52L275.446 1070.21H245.602H215.76V1101.02V1131.82L220.357 1131.06ZM245.795 1067.76H275.829V1037.72V1007.69H245.795H215.76V1037.72V1067.76H245.795ZM245.795 1004.01H275.829V973.976V943.941H245.795H215.76V973.976L215.76 1004.01H245.795ZM245.795 941.49H275.829V911.455V881.42H245.795H215.76V911.455V941.49H245.795ZM245.795 877.743H275.829V847.708V817.674H245.795H215.76V847.708V877.743H245.795ZM245.795 815.222H275.829V785.188V755.153H245.795H215.76V785.188V815.222H245.795ZM245.795 751.475H275.829V721.441V691.406H245.795H215.76V721.441V751.475H245.795ZM245.795 688.955H275.829V658.92V628.886H245.795H215.76V658.92V688.955H245.795ZM245.795 625.208H275.829V595.173V565.139H245.795H215.76V595.173V625.208H245.795ZM245.795 562.687H275.829V532.653L275.829 502.618H245.795H215.76L215.76 532.653V562.687H245.795ZM245.795 498.94H275.829V468.906V438.871H245.795H215.76V468.906V498.94H245.795ZM245.795 436.42H275.829V406.385V376.351H245.795H215.76V406.385V436.42H245.795ZM245.772 372.673H275.829V342.616V312.56L246.101 312.888L216.373 313.217L216.044 342.945L215.716 372.673H245.772ZM245.795 310.152H275.829V280.118V250.083H245.795H215.76V280.118V310.152H245.795ZM245.623 247.631H275.485L276.121 217.903C276.472 201.554 276.516 187.762 276.22 187.256C275.926 186.75 262.202 186.337 245.722 186.337H215.76V216.984V247.631H245.623ZM308.929 1194.02H339.576V1163.38V1132.73H309.727H279.877L279.085 1144.68C278.65 1151.26 278.291 1165.05 278.287 1175.33L278.281 1194.02H308.929ZM279.237 168.255L279.581 183.885H309.578H339.576V153.85V123.816H308.833H278.09L278.492 138.22C278.713 146.142 279.048 159.657 279.237 168.255ZM309.542 1130.28H339.576V1100.24V1070.21H309.542H279.507V1100.24V1130.28H309.542ZM309.542 1067.76H339.576V1037.72V1007.69H309.542H279.507V1037.72V1067.76H309.542ZM309.542 1004.01H339.576V973.976V943.941H309.542H279.507V973.976V1004.01H309.542ZM309.542 941.49H339.576V911.455V881.42H309.542H279.507V911.455V941.49H309.542ZM309.542 877.743H339.576V847.708V817.674H309.542H279.507V847.708V877.743H309.542ZM309.542 815.222H339.576V785.188V755.153H309.542H279.507V785.188V815.222H309.542ZM309.542 751.475H339.576L339.576 721.441V691.406H309.542H279.507V721.441V751.475H309.542ZM309.542 688.955H339.576V658.92V628.886H309.542H279.507V658.92V688.955H309.542ZM309.542 625.208H339.576V595.173V565.139H309.542H279.507V595.173V625.208H309.542ZM309.542 562.687H339.576V532.653V502.618H309.542H279.507L279.507 532.653V562.687H309.542ZM309.542 498.94H339.576V468.906V438.871H309.542H279.507V468.906V498.94H309.542ZM309.542 436.42H339.576V406.385V376.351H309.542H279.507V406.385V436.42H309.542ZM309.542 372.673H339.576V342.639V312.604H309.542H279.507V342.639V372.673H309.542ZM309.542 310.152H339.576V280.118V250.083H309.542H279.507V280.118V310.152H309.542ZM309.542 247.631H339.576V216.984V186.337H309.542H279.507V216.984V247.631H309.542ZM372.857 1130.28H403.686L402.899 1120.16C402.467 1114.6 402.109 1101.09 402.105 1090.13L402.098 1070.21H372.063H342.028V1100.24V1130.28H372.857ZM372.063 1067.76H402.098V1037.72V1007.69H372.063H342.028V1037.72V1067.76H372.063ZM372.063 1004.01H402.098V973.976V943.941H372.063H342.028V973.976V1004.01H372.063ZM372.063 941.49H402.098V911.455V881.42H372.063H342.028V911.455V941.49H372.063ZM372.063 877.743H402.098V847.708V817.674H372.063H342.028V847.708V877.743H372.063ZM372.063 815.222H402.098V785.188V755.153H372.063H342.028V785.188V815.222H372.063ZM372.063 751.475H402.098L402.098 721.441V691.406H372.063H342.028V721.441L342.028 751.475H372.063ZM372.063 688.955H402.098V658.92V628.886H372.063H342.028V658.92V688.955H372.063ZM372.063 625.208H402.098V595.173V565.139H372.063H342.028V595.173V625.208H372.063ZM372.063 562.687H402.098V532.653V502.618H372.063H342.028V532.653V562.687H372.063ZM372.063 498.94H402.098V468.906V438.871H372.063H342.028V468.906V498.94H372.063ZM372.063 436.42H402.098V406.385V376.351H372.063H342.028V406.385V436.42H372.063ZM372.063 372.673H402.098V342.639V312.604H372.063H342.028V342.639V372.673H372.063ZM372.063 310.152H402.098V280.118V250.083H372.063H342.028V280.118V310.152H372.063ZM372.063 247.631H402.098V216.984V186.337H372.063H342.028V216.984V247.631H372.063ZM371.91 183.885H401.791L402.557 180.054C403.647 174.602 403.511 124.044 402.404 123.553C401.898 123.329 388.106 123.341 371.756 123.578L342.028 124.011V153.947V183.885H371.91ZM435.81 1067.76H465.845V1036.94V1006.11L458.309 1006.9C454.166 1007.33 440.65 1007.69 428.274 1007.69H405.775V1037.72V1067.76H435.81ZM435.81 1004.01H465.845V973.976V943.941H435.81H405.775V973.976V1004.01H435.81ZM435.81 941.49H465.845V911.455V881.42H435.81H405.775V911.455V941.49H435.81ZM435.81 877.743H465.845V847.708V817.674H435.81H405.775V847.708V877.743H435.81ZM435.81 815.222H465.845V785.188V755.153H435.81H405.775V785.188V815.222H435.81ZM435.81 751.475H465.845L465.845 721.441V691.406H435.81H405.775V721.441L405.775 751.475H435.81ZM435.81 688.955H465.845V658.92V628.886H435.81H405.775V658.92V688.955H435.81ZM435.81 625.208H465.845V595.173V565.139H435.81H405.775V595.173V625.208H435.81ZM435.81 562.687H465.845V532.653V502.618H435.81H405.775V532.653V562.687H435.81ZM435.81 498.94H465.845V468.906V438.871H435.81H405.775V468.906V498.94H435.81ZM435.81 436.42H465.845V406.385V376.351H435.81H405.775V406.385V436.42H435.81ZM435.81 372.673H465.845V342.639V312.604H435.81H405.775V342.639V372.673H435.81ZM435.81 310.152H465.845V280.118V250.083H435.81H405.775V280.118V310.152H435.81ZM435.81 247.631H465.845V216.984V186.337H435.81H405.775V216.984V247.631H435.81ZM488.72 1004.43C499.953 1004.87 513.745 1005.24 519.368 1005.24H529.592V974.589V943.941H498.944H468.297V973.783V1003.63L488.72 1004.43ZM498.944 941.49H529.592V911.66C529.592 895.252 529.363 881.599 529.083 881.319C528.804 881.037 515.012 880.964 498.436 881.156L468.297 881.504V911.497V941.49H498.944ZM498.331 877.743H528.366V847.708V817.674H498.331H468.297V847.708V877.743H498.331ZM498.331 815.222H528.366V785.188V755.153H498.331H468.297V785.188V815.222H498.331ZM498.331 751.475H528.366V721.441V691.406H498.331H468.297V721.441L468.297 751.475H498.331ZM498.331 688.955H528.366V658.92V628.886H498.331H468.297V658.92V688.955H498.331ZM498.331 625.208H528.366V595.173V565.139H498.331H468.297V595.173V625.208H498.331ZM498.331 562.687H528.366V532.653V502.618H498.331H468.297V532.653V562.687H498.331ZM496.303 499.203C511.705 499.395 525.22 499.376 526.337 499.157C528.159 498.801 528.366 495.704 528.366 468.816V438.871H498.331H468.297V468.862V498.852L496.303 499.203ZM498.144 436.42H527.991L528.787 422.628C529.223 415.042 529.583 401.528 529.586 392.594L529.592 376.351H498.944H468.297V406.385V436.42H498.144ZM480.862 372.975C487.773 373.297 501.427 373.499 511.203 373.423L528.979 373.286L529.306 342.945L529.635 312.604H498.965H468.297V342.496V372.387L480.862 372.975Z" fill="black" fill-opacity="0.2"/>
<path fill-rule="evenodd" clip-rule="evenodd" d="M126.575 627.38L150.787 627.66V658.131V688.603L133.931 689.799L117.074 690.996L133.931 691.201L150.787 691.406V722.025V752.643L130.253 753.01L109.719 753.378L130.253 753.653L150.787 753.927V784.575V815.222L141.899 815.367C135.212 815.476 133.922 815.744 136.689 816.448C138.712 816.963 142.711 817.45 145.577 817.529L150.787 817.674L150.787 848.275V878.877L139.447 879.281L128.108 879.686L139.426 879.94L150.745 880.195L151.095 911.149L151.444 942.103L151.728 911.149L152.013 880.195H182.66H213.308L213.523 899.503C213.64 910.123 213.778 923.775 213.829 929.844L213.921 940.877L192.468 941.49L171.014 942.103L183.273 943.016C190.016 943.517 199.817 943.932 205.054 943.935L214.577 943.941L214.248 974.282L213.921 1004.62L196.145 1005.27L178.37 1005.92L196.145 1006.5L213.921 1007.08L214.592 1022.4L215.263 1037.72L215.511 1022.09L215.76 1006.46H246.408H277.055V1037.11V1067.76L254.683 1068.02L232.31 1068.28L254.376 1068.94L276.442 1069.6L277.086 1089.82L277.728 1110.05L278.312 1089.82L278.894 1069.6L309.235 1069.27L339.577 1068.94L339.738 1074.17C339.827 1077.05 340.283 1085.75 340.752 1093.5L341.604 1107.6L341.816 1088.29L342.028 1068.98H372.632H403.236L403.635 1080.94L404.036 1092.89L404.294 1080.99L404.55 1069.1L412.212 1068.66L419.874 1068.23L412.212 1067.99L404.55 1067.76V1037.13V1006.5L438.569 1006.15L472.588 1005.81L438.569 1005.52L404.55 1005.24V974.632V944.026L434.278 943.678C450.628 943.485 464.502 943.713 465.106 944.183C465.71 944.652 466.538 949.342 466.945 954.603L467.684 964.169L468.297 953.749L468.91 943.328L473.814 942.583L478.717 941.838L473.507 941.664L468.297 941.49V910.866V880.241L495.573 879.887L522.85 879.533L495.573 879.251L468.297 878.969V848.321V817.674L489.444 817.529C501.075 817.45 512.246 816.963 514.268 816.448C516.361 815.916 507.245 815.45 493.122 815.367L468.297 815.222V784.575V753.927H498.926H529.557L529.9 791.011L530.242 828.094L530.53 791.081L530.818 754.068L536.028 753.599L541.238 753.129L536.028 752.916L530.818 752.701V722.054C530.818 699.034 531.185 691.406 532.289 691.406C533.433 691.406 533.433 691.079 532.289 689.935C531.224 688.87 530.818 680.085 530.818 658.114V627.763L540.319 627.345L549.82 626.927L540.319 626.68L530.818 626.434V595.876C530.818 567.805 530.992 565.273 532.964 564.758C535.007 564.225 535.007 564.19 532.964 564.055C530.98 563.924 530.818 561.557 530.818 532.734V501.555L534.189 501.044L537.561 500.534L534.223 500.35L530.883 500.166L530.509 482.084L530.134 464.002L529.863 482.084L529.592 500.166H498.945H468.297V469.519V438.872H494.859C509.467 438.872 521.158 438.61 520.839 438.292C520.521 437.972 508.568 437.659 494.278 437.597L468.297 437.481V406.336V375.19L486.379 374.816L504.461 374.441L486.379 374.17L468.297 373.899L468.104 352.752C467.952 336.179 467.721 333.461 467.031 340.187C466.546 344.906 466.082 354.422 465.997 361.333L465.845 373.899H435.197H404.55V343.252V312.604H440.919C460.921 312.604 476.978 312.295 476.6 311.916C476.222 311.539 459.994 311.126 440.537 310.997L405.163 310.765L404.835 279.842L404.508 248.919L424.45 248.548L444.392 248.18L424.498 247.905L404.604 247.632L404.242 224.646L403.879 201.66L403.602 224.646L403.324 247.632H372.676H342.028L341.82 218.516C341.644 193.946 341.477 191.506 340.75 202.886C340.277 210.303 339.818 223.404 339.732 232.001L339.577 247.632H308.95H278.324L277.974 217.291L277.623 186.95L277.34 217.291L277.055 247.632H241.299C221.635 247.632 205.849 247.936 206.22 248.307C206.591 248.68 222.681 248.944 241.976 248.897L277.055 248.81V279.299V309.789L266.942 310.576C261.38 311.009 247.588 311.367 236.294 311.371L215.76 311.378L215.492 285.328L215.222 259.278L214.572 285.021L213.921 310.765L193.694 311.425L173.466 312.083L194.021 312.344L214.577 312.604L214.248 342.945L213.921 373.286L183.015 373.613L152.108 373.941L151.7 363.193L151.291 352.446L151.039 363.083C150.826 372.054 150.451 373.807 148.642 374.28C146.598 374.813 146.598 374.848 148.642 374.983C150.625 375.114 150.787 377.482 150.787 406.336V437.546L140.673 437.959L130.559 438.373L140.673 438.622L150.787 438.872V469.487L150.787 500.103L132.092 500.475L113.397 500.848L132.092 501.12L150.787 501.392V531.916V562.441L135.157 563.245C113.441 564.364 112.95 564.831 133.318 564.997L150.787 565.139V595.761V626.382L126.575 626.742L102.364 627.102L126.575 627.38ZM182.66 878.969H213.308V848.321V817.674H182.66H152.013L152.013 848.321V878.969H182.66ZM182.66 815.222H213.308V784.575L213.308 753.927H182.66H152.013V784.575V815.222H182.66ZM182.66 752.701H213.308V722.054V691.406H182.66H152.013V722.054V752.701H182.66ZM182.66 688.955H213.308V658.307V627.66H182.66H152.013V658.307V688.955H182.66ZM182.66 626.434H213.308V595.786V565.139H182.66H152.013V595.786V626.434H182.66ZM182.66 562.687H213.308V532.04L213.308 501.392H182.66H152.013V532.04V562.687H182.66ZM182.66 500.166H213.308V469.519V438.872H182.66H152.013V469.519L152.013 500.166H182.66ZM153.991 437.256C155.931 438 211.909 437.003 212.698 436.21C212.918 435.988 213.262 422.291 213.459 405.772L213.818 375.738L182.915 375.41L152.013 375.083V405.789C152.013 432.917 152.243 436.585 153.991 437.256ZM246.408 1005.24H277.055V974.589V943.941H246.408H215.76V974.589V1005.24H246.408ZM246.408 941.49H277.055V910.842V880.195H246.408H215.76V910.842V941.49H246.408ZM246.408 878.969H277.055V848.321V817.674H246.408H215.76V848.321V878.969H246.408ZM246.408 815.222H277.055V784.575V753.927H246.408H215.76L215.76 784.575V815.222H246.408ZM246.408 752.701H277.055V722.054V691.406H246.408H215.76V722.054V752.701H246.408ZM246.428 688.955H277.098L276.77 658.614L276.442 628.273L246.101 627.945L215.76 627.617V658.286V688.955H246.428ZM246.408 626.434H277.055V595.786V565.139H246.408H215.76V595.786V626.434H246.408ZM246.428 562.687H277.098L276.77 532.346L276.442 502.005L246.101 501.678L215.76 501.349L215.76 532.019V562.687H246.428ZM246.408 500.166H277.055V469.519V438.872H246.408H215.76V469.519V500.166H246.408ZM246.428 436.42H277.098L276.77 406.079L276.442 375.738L246.101 375.41L215.76 375.082V405.751V436.42H246.428ZM246.408 373.899H277.055V343.252V312.604H246.408H215.76V343.252V373.899H246.408ZM308.929 1067.76H339.577V1037.11V1006.46H308.929H278.281V1037.11V1067.76H308.929ZM308.929 1005.24H339.577V974.589V943.941H308.929H278.281V974.589V1005.24H308.929ZM308.929 941.49H339.577V910.842V880.195H308.929H278.281V910.842V941.49H308.929ZM279.099 878.151C279.548 878.601 293.339 878.969 309.747 878.969H339.577V848.321V817.674H308.929H278.281V847.504C278.281 863.911 278.649 877.703 279.099 878.151ZM308.908 815.222H339.577V784.554V753.884L309.235 754.213L278.894 754.54L278.567 784.881L278.238 815.222H308.908ZM279.099 751.884C279.548 752.334 293.339 752.701 309.747 752.701H339.577V722.054V691.406H308.929H278.281V721.236C278.281 737.644 278.649 751.435 279.099 751.884ZM308.908 688.955H339.577V658.286V627.617L309.235 627.945L278.894 628.273L278.567 658.614L278.238 688.955H308.908ZM279.099 625.616C279.548 626.066 293.339 626.434 309.747 626.434H339.577V595.786V565.139H308.929H278.281V594.969C278.281 611.376 278.649 625.168 279.099 625.616ZM308.908 562.687H339.577V532.019V501.349L309.235 501.678L278.894 502.005L278.567 532.346L278.238 562.687H308.908ZM279.099 499.349C279.548 499.799 293.339 500.166 309.747 500.166H339.577V469.519V438.872H308.929H278.281V468.701C278.281 485.109 278.649 498.9 279.099 499.349ZM308.908 436.42H339.577L339.577 405.751V375.082L309.235 375.41L278.894 375.738L278.567 406.079L278.238 436.42H308.908ZM308.929 373.899H339.577V343.252V312.604H308.929H278.281V343.252V373.899H308.929ZM308.929 310.152H339.577V279.505V248.857H308.929H278.281V279.505V310.152H308.929ZM326.092 185.796C348.679 185.808 361.542 185.642 354.676 185.423C344.119 185.087 342.107 184.703 341.64 182.924C341.121 180.952 341.078 180.954 340.945 182.942C340.815 184.878 338.341 185.096 312.913 185.418C296.072 185.632 301.293 185.781 326.092 185.796ZM372.676 1067.76H403.324V1037.11V1006.46H372.676H342.028V1037.11V1067.76H372.676ZM372.676 1005.24H403.324V974.589V943.941H372.676H342.028V974.589V1005.24H372.676ZM372.676 941.49H403.324V910.842V880.195H372.676H342.028V910.842V941.49H372.676ZM372.676 878.969H403.324V848.321V817.674H372.676H342.028V848.321V878.969H372.676ZM372.676 815.222H403.324V784.575V753.927H372.676H342.028V784.575V815.222H372.676ZM372.676 752.701H403.324V722.054V691.406H372.676H342.028V722.054V752.701H372.676ZM372.697 688.955H403.367L403.038 658.614L402.711 628.273L372.37 627.945L342.028 627.617V658.286V688.955H372.697ZM372.37 626.148L402.711 625.821L403.038 595.48L403.367 565.139H372.697H342.028V595.807V626.477L372.37 626.148ZM372.697 562.687H403.367L403.038 532.346L402.711 502.005L372.37 501.678L342.028 501.349V532.019V562.687H372.697ZM372.676 500.166H403.324V469.519V438.872H372.676H342.028V469.519V500.166H372.676ZM372.697 436.42H403.367L403.038 406.079L402.711 375.738L372.37 375.41L342.028 375.082V405.751L342.028 436.42H372.697ZM372.676 373.899H403.324V343.252V312.604H372.676H342.028V343.252V373.899H372.676ZM371.757 310.434C388.107 310.768 401.898 310.808 402.404 310.524C402.911 310.241 403.324 296.249 403.324 279.432V248.857H372.676H342.028V279.342V309.826L371.757 310.434ZM435.197 941.49H465.845V910.842V880.195H435.197H404.55V910.842V941.49H435.197ZM405.367 878.151C405.816 878.601 419.608 878.969 436.015 878.969H465.845V848.321V817.674H435.197H404.55V847.504C404.55 863.911 404.918 877.703 405.367 878.151ZM435.177 815.222H465.845V784.554V753.884L435.504 754.213L405.163 754.54L404.835 784.881L404.507 815.222H435.177ZM405.367 751.884C405.816 752.334 419.608 752.701 436.015 752.701H465.845V722.054V691.406H435.197H404.55V721.236C404.55 737.644 404.918 751.435 405.367 751.884ZM435.177 688.955H465.845V658.286L465.845 627.617L435.504 627.945L405.163 628.273L404.835 658.614L404.507 688.955H435.177ZM405.367 625.616C405.816 626.066 419.608 626.434 436.015 626.434H465.845V595.786V565.139H435.197H404.55V594.969C404.55 611.376 404.918 625.168 405.367 625.616ZM435.177 562.687H465.845V532.019V501.349L435.504 501.678L405.163 502.005L404.835 532.346L404.507 562.687H435.177ZM435.197 500.166H465.845V469.519V438.872H435.197H404.55V469.519V500.166H435.197ZM423.224 436.426C433.518 436.43 447.318 436.789 453.893 437.224L465.845 438.016V406.548V375.082L435.504 375.41L405.163 375.738L404.835 406.079L404.507 436.42L423.224 436.426ZM498.945 752.701H529.592V722.054V691.406H498.945H468.297V722.054V752.701H498.945ZM498.025 689.207C514.375 689.487 528.167 689.513 528.673 689.262C529.179 689.014 529.592 675.052 529.592 658.235V627.66H498.945H468.297L468.297 658.18V688.7L498.025 689.207ZM498.945 626.434H529.592V595.786V565.139H498.945H468.297V595.786V626.434H498.945ZM498.025 562.979C514.375 563.33 528.167 563.374 528.673 563.078C529.179 562.784 529.592 548.784 529.592 531.967V501.392H498.945H468.297V531.868V562.343L498.025 562.979Z" fill="#F9FAFA"/>
</g>
<defs>
<clipPath id="clip0_0_181">
<rect width="1297" height="610.502" fill="white" transform="matrix(0 -1 1 0 0 1297)"/>
</clipPath>
</defs>
</svg>
