<svg width="874" height="1066" viewBox="0 0 874 1066" fill="none" xmlns="http://www.w3.org/2000/svg">
<path fill-rule="evenodd" clip-rule="evenodd" d="M140.667 466C140.667 410.772 185.438 366 240.667 366H707.333C762.563 366 807.333 410.772 807.333 466V766C807.333 821.23 762.563 866 707.333 866H507.333V899.333H574C592.41 899.333 607.333 914.257 607.333 932.667C607.333 951.077 592.41 966 574 966H374C355.59 966 340.666 951.077 340.666 932.667C340.666 914.257 355.59 899.333 374 899.333H440.666V866H240.667C185.438 866 140.667 821.23 140.667 766V466ZM240.667 432.667C222.257 432.667 207.333 447.591 207.333 466V766C207.333 784.41 222.257 799.333 240.667 799.333H707.333C725.743 799.333 740.666 784.41 740.666 766V466C740.666 447.591 725.743 432.667 707.333 432.667H240.667Z" fill="white"/>
<path d="M799.82 298.08C795.475 255.453 714.834 225.985 597.623 217.074C586.417 151.375 573.453 75.5689 569.668 54.9642C560.976 7.77205 498.818 -18.6201 452.651 15.4127C428.432 33.2596 406.778 34.5283 395.303 34.5283C383.828 34.5283 371.084 37.0674 337.954 15.4127C289.956 -15.9842 229.629 7.77048 220.962 54.9642C216.323 80.1345 198.012 187.533 185.976 258.406C70.6449 290.927 -4.23323 336.703 0.185522 379.842C6.82615 444.881 191.226 479.328 412.026 456.746C632.876 434.163 806.484 363.144 799.82 298.08ZM206.704 313.631L219.448 247.372C219.448 247.372 446.304 283.041 573.745 216.781L586.489 272.861C586.489 272.861 448.843 359.506 206.704 313.631Z" fill="white"/>
</svg>
