<svg width="43" height="52" viewBox="0 0 43 52" fill="none" xmlns="http://www.w3.org/2000/svg">
<g filter="url(#filter0_i_3150_228)">
<path fill-rule="evenodd" clip-rule="evenodd" d="M6.60352 22.2114C6.60352 19.5174 8.7875 17.3334 11.4816 17.3334H34.2458C36.9399 17.3334 39.1238 19.5174 39.1238 22.2114V36.8456C39.1238 39.5397 36.9399 41.7236 34.2458 41.7236H24.4897V43.3496H27.7417C28.6398 43.3496 29.3677 44.0776 29.3677 44.9756C29.3677 45.8737 28.6398 46.6017 27.7417 46.6017H17.9856C17.0876 46.6017 16.3596 45.8737 16.3596 44.9756C16.3596 44.0776 17.0876 43.3496 17.9856 43.3496H21.2377V41.7236H11.4816C8.7875 41.7236 6.60352 39.5397 6.60352 36.8456V22.2114ZM11.4816 20.5854C10.5835 20.5854 9.85555 21.3134 9.85555 22.2114V36.8456C9.85555 37.7436 10.5835 38.4716 11.4816 38.4716H34.2458C35.1438 38.4716 35.8718 37.7436 35.8718 36.8456V22.2114C35.8718 21.3134 35.1438 20.5854 34.2458 20.5854H11.4816Z" fill="white"/>
<path d="M39.0156 14.5405C38.8036 12.4611 34.8699 11.0236 29.1523 10.589C28.6057 7.38415 27.9733 3.68629 27.7887 2.68118C27.3647 0.379124 24.3326 -0.908299 22.0805 0.751838C20.8991 1.62242 19.8428 1.68431 19.2831 1.68431C18.7233 1.68431 18.1017 1.80816 16.4856 0.751838C14.1442 -0.779717 11.2014 0.379048 10.7786 2.68118C10.5523 3.909 9.65913 9.14795 9.07201 12.6052C3.44609 14.1915 -0.206499 16.4245 0.00904986 18.5289C0.332983 21.7015 9.3281 23.3819 20.0988 22.2803C30.872 21.1787 39.3407 17.7143 39.0156 14.5405ZM10.0831 15.2991L10.7048 12.0669C10.7048 12.0669 21.7709 13.8069 27.9876 10.5747L28.6092 13.3103C28.6092 13.3103 21.8948 17.5369 10.0831 15.2991Z" fill="white"/>
</g>
<defs>
<filter id="filter0_i_3150_228" x="0" y="0" width="43.6343" height="56" filterUnits="userSpaceOnUse" color-interpolation-filters="sRGB">
<feFlood flood-opacity="0" result="BackgroundImageFix"/>
<feBlend mode="normal" in="SourceGraphic" in2="BackgroundImageFix" result="shape"/>
<feColorMatrix in="SourceAlpha" type="matrix" values="0 0 0 0 0 0 0 0 0 0 0 0 0 0 0 0 0 0 127 0" result="hardAlpha"/>
<feOffset dx="1" dy="4"/>
<feGaussianBlur stdDeviation="2"/>
<feComposite in2="hardAlpha" operator="arithmetic" k2="-1" k3="1"/>
<feColorMatrix type="matrix" values="0 0 0 0 0 0 0 0 0 0 0 0 0 0 0 0 0 0 0.25 0"/>
<feBlend mode="normal" in2="shape" result="effect1_innerShadow_3150_228"/>
</filter>
</defs>
</svg>
