<svg width="16" height="15" viewBox="0 0 16 15" fill="none" xmlns="http://www.w3.org/2000/svg">
<path fill-rule="evenodd" clip-rule="evenodd" d="M5.97501 1.30952L11.01 3.65104C12.5405 4.3628 13.745 4.92298 14.5622 5.45344C15.3693 5.97739 16 6.59861 16 7.5C16 8.40139 15.3693 9.02262 14.5622 9.54657C13.745 10.077 12.5405 10.6372 11.01 11.349L5.97501 13.6905C5.03954 14.1255 4.31179 14.464 3.74354 14.6836C3.18749 14.8985 2.69052 15.0397 2.24863 14.99C1.17683 14.8696 0.254544 14.1098 0.0313303 13.0373C-0.0632749 12.5827 0.0690106 12.0742 0.259073 11.5459C0.455863 10.999 0.768634 10.2967 1.1671 9.40196L1.17784 9.37783C1.48926 8.67857 1.60911 8.40264 1.67026 8.12737C1.76225 7.71329 1.76225 7.28671 1.67026 6.87263C1.60911 6.59737 1.48926 6.32143 1.17784 5.62217L1.1671 5.59805C0.768633 4.70334 0.455863 4.00105 0.259072 3.45408C0.0690104 2.92581 -0.0632748 2.41728 0.031331 1.9627C0.254545 0.890153 1.17682 0.130446 2.24863 0.00997134C2.69052 -0.0396986 3.18749 0.101455 3.74354 0.316388C4.31179 0.536032 5.03954 0.874474 5.97501 1.30952ZM3.35256 1.39716C2.80618 1.18597 2.52707 1.13934 2.36931 1.15707C1.70841 1.23136 1.23113 1.68418 1.12266 2.20537C1.10248 2.30234 1.11657 2.52715 1.30536 3.05188C1.48565 3.553 1.78034 4.21567 2.19185 5.13967C2.20087 5.15992 2.20978 5.17992 2.21858 5.19968C2.49469 5.81945 2.66812 6.20875 2.75824 6.6144C2.88798 7.19842 2.88798 7.80158 2.75824 8.38561C2.66812 8.79125 2.49469 9.18056 2.21858 9.80033C2.20978 9.82009 2.20087 9.84009 2.19185 9.86033C1.78034 10.7843 1.48565 11.447 1.30536 11.9481C1.11657 12.4728 1.10248 12.6977 1.12266 12.7946C1.23113 13.3158 1.70841 13.7686 2.36931 13.8429C2.52707 13.8607 2.80618 13.814 3.35255 13.6028C3.88266 13.3979 4.57731 13.0752 5.53716 12.6288L10.5068 10.3177C12.0922 9.58041 13.225 9.05209 13.9685 8.56943C14.7301 8.07504 14.8837 7.75387 14.8837 7.5C14.8837 7.24613 14.7301 6.92496 13.9685 6.43058C13.225 5.94791 12.0922 5.41959 10.5068 4.68232L5.53716 2.37117C4.57732 1.92479 3.88266 1.60206 3.35256 1.39716Z" fill="white"/>
</svg>
